<svg xmlns="http://www.w3.org/2000/svg" viewBox="0 0 200 80" fill="none">
  <!-- Caduceus circle -->
  <circle cx="40" cy="28" r="16" fill="#1a237e"/>
  <line x1="40" y1="14" x2="40" y2="42" stroke="#fff" stroke-width="2"/>
  <path d="M34 20c0-3 3-5 6-4s3 4 0 5-6 1-6-1z" fill="none" stroke="#fff" stroke-width="1.5"/>
  <path d="M46 20c0-3-3-5-6-4s-3 4 0 5 6 1 6-1z" fill="none" stroke="#fff" stroke-width="1.5"/>
  <path d="M34 28c0-3 3-5 6-4s3 4 0 5-6 1-6-1z" fill="none" stroke="#fff" stroke-width="1.5"/>
  <path d="M46 28c0-3-3-5-6-4s-3 4 0 5 6 1 6-1z" fill="none" stroke="#fff" stroke-width="1.5"/>
  <!-- AMA text -->
  <text x="40" y="68" text-anchor="middle" font-family="Arial,Helvetica,sans-serif" font-weight="900" font-size="28" fill="#1a237e" letter-spacing="4">AMA</text>
</svg>